<svg xmlns="http://www.w3.org/2000/svg" width="47" height="25" fill="none" viewBox="0 0 47 25"><g clip-path="url(#clip0)"><path fill="#260D00" d="M36.245 1.798c-.38 1.775.859 2.988.859 2.988l1.433-.082-1.896-1.947-.396-.96z" opacity="0.5"></path><path fill="#000" d="M6.144 10.041c1.317-.45 1.392-2.338 1.313-3.42-.168-2.294-1.836-3.167-4.026-2.876-.616.078-1.235.16-1.85.246-.512.071-.575.19-.43 1.205.56 3.894 1.127 7.789 1.683 11.679.104.731.34.716.806.653.552-.075 1.1-.15 1.653-.216 2.31-.28 3.41-1.761 3.176-4.093-.127-1.253-.717-3.241-2.325-3.178zM3.132 5.323c.187-.026.28-.037.467-.06 1.228-.19 1.623.478 1.754 1.619.1.884.145 2.44-1.086 2.563l-.59.074c-.179-1.395-.362-2.794-.545-4.196zm1.877 10.46c-.205.025-.306.036-.507.063l-.612-4.72.451-.055c1.47-.175 1.986 1.018 2.127 2.283.124 1.145-.149 2.29-1.459 2.428zM12.715 16.77c.959-.07 2.049-.216 2.627-1.077.701-1.041.54-2.671.474-3.842L15.39 3.32c-.018-.377-.489-.646-1.082-.608-.574.033-1.011.35-.989.727.176 2.839.336 5.689.519 8.523.086 1.287.4 2.98-1.25 3.1-1.653.123-1.586-1.604-1.69-2.887-.232-2.82-.493-5.673-.728-8.508-.03-.377-.511-.627-1.082-.575-.575.052-1 .384-.963.761.272 2.835.549 5.666.821 8.501.254 2.645.765 4.64 3.769 4.417zM21.029 14.529c-.843.022-1.683.048-2.526.078l-.392-11.38c-.041-.966-1.825-1.112-1.944-.142.179 4.02.362 8.038.54 12.06.05 1.044.105 1.13.594 1.111a175.28 175.28 0 013.963-.108c.978-.097.694-1.645-.235-1.62zM26.667 14.551c-.843-.011-1.683-.018-2.526-.018.019-3.798.034-7.591.049-11.389-.004-.966-1.78-1.182-1.937-.216.026 4.025.052 8.046.075 12.07.007 1.045.06 1.135.548 1.135 1.321 0 2.642.015 3.963.045.981-.06.757-1.62-.172-1.627zM29.335 2.376c-.593-.022-.981.235-.992.616l-.414 12.786c-.015.452.391.717.862.735.451.019.895-.216.918-.664l.57-12.78c.015-.383-.369-.67-.944-.693zM34.563 2.72c-1.87-.135-3.735 1.073-3.825 3.054-.086 1.977.862 3.268 2.46 4.346.914.615 2.182 1.611 2.096 2.902-.078 1.149-.865 2.077-2.09 1.977-1.081-.09-2.861-2.216-2.902-.168-.026 1.302 1.59 1.76 2.627 1.831 2.168.146 4.026-1.1 4.242-3.346.202-2.103-1.205-3.401-2.776-4.517-.963-.682-1.765-1.496-1.687-2.768.068-1.066.848-1.79 1.937-1.712.922.067 1.306.84 2.06 1.112.62.224.612.03.672-.798.108-1.407-1.762-1.84-2.814-1.914zM43.526 4.435l-.597 4.592a151.18 151.18 0 00-2.877-.347c.172-1.533.34-3.07.511-4.603.097-.959-1.634-1.358-1.884-.414l-1.254 12.731c.023.97 1.68.895 1.777-.03.223-2.007.444-4.01.664-6.017.947.105 1.899.22 2.843.344-.261 1.999-.519 4.002-.78 6.001-.123.925 1.47 1.388 1.72.452L45.452 4.48c-.011-.977-1.791-1-1.926-.045z"></path><path fill="#EBE1E1" d="M28.483 9.422l-.205 6.364c-.008.276.325.362.522.37h.034c.172 0 .504-.068.515-.329l.287-6.416.09-2.048c-.392-.015-.784-.026-1.18-.04l-.063 2.1zM22.644 8.725l.04 6.274c0 .198.005.634.05.776a.989.989 0 00.141.007h.015c1.31 0 2.638.015 3.952.045.246-.022.29-.213.287-.37-.008-.227-.153-.548-.463-.551-.84-.011-1.686-.019-2.522-.019h-.355v-.354c.011-2.432.023-4.86.03-7.293-.395-.003-.787-.003-1.186-.003l.01 1.488zM31.637 8.102c.373.616.944 1.179 1.757 1.723 1.015.683 2.351 1.761 2.25 3.216-.09 1.361-1.022 2.313-2.261 2.313-.067 0-.138-.004-.209-.008-.448-.037-.933-.325-1.403-.604-.358-.213-.761-.452-.97-.452-.037 0-.041.004-.056.03-.026.041-.086.172-.094.511-.007.444.232.791.732 1.06.586.317 1.291.391 1.567.414.108.007.213.01.317.01.922 0 1.776-.283 2.407-.801.66-.541 1.053-1.317 1.142-2.234.175-1.81-.925-2.985-2.627-4.197-.556-.395-1.16-.903-1.519-1.585l-1.354-.067c.086.235.19.458.32.671zM43.279 9.072l-.045.35-.35-.044c-.904-.12-1.844-.232-2.87-.343l-.351-.038.037-.35.071-.642-1.16-.1-.836 8.504c.019.31.366.332.47.332.224 0 .571-.108.605-.414l.667-6.017.038-.35.35.037c1.02.112 1.952.224 2.852.343l.35.045-.045.35-.78 6.002a.396.396 0 00.105.325c.127.145.35.242.556.242.276 0 .343-.156.366-.231l1.22-8.568c-.384-.045-.769-.093-1.157-.134l-.093.7zM16.748 8.095l.317 7.035c.007.194.03.634.078.775.015 0 .034.004.064.004.022 0 .052 0 .085-.004 1.314-.052 2.642-.085 3.956-.108.194-.022.284-.149.272-.373-.01-.223-.164-.54-.47-.54h-.015c-.836.022-1.686.048-2.522.078l-.355.015-.011-.355c-.082-2.447-.168-4.89-.25-7.337-.395.008-.791.019-1.187.03l.038.78zM5.3 9.277a1.427 1.427 0 01-.993.522l-.582.075-.351.044-.045-.35-.15-1.156c.001 0-.76.115-1.163.32.403 2.798.757 5.249 1.164 8.091.041.28.09.358.104.373.008 0 .023.004.056.004.064 0 .153-.011.25-.026.549-.075 1.109-.15 1.657-.217 2.097-.253 3.09-1.537 2.87-3.708-.034-.339-.157-1.204-.549-1.913-.347-.627-.802-.944-1.354-.944h-.06l-2.407.094 2.276-.78c.728-.25.99-1.1 1.068-1.891-.456.037-.903.07-1.351.112-.034.582-.183 1.03-.44 1.35zM3.84 10.78c.18-.022.273-.033.452-.06.112-.014.22-.018.32-.018.87 0 1.96.455 2.199 2.615.1.91-.056 1.652-.452 2.144-.31.385-.754.612-1.317.672l-.504.063-.35.045-.045-.35-.612-4.72-.045-.35.354-.04zM14.192 11.94c.007.123.018.25.03.38.07.896.152 1.907-.392 2.545-.28.324-.687.51-1.213.548-.064.004-.127.008-.187.008-1.664 0-1.772-1.638-1.854-2.835-.008-.135-.019-.261-.026-.38-.127-1.53-.262-3.093-.392-4.608-.437.027-.873.056-1.306.086l.037.384.41 4.25c.265 2.73.795 4.113 2.975 4.113.134 0 .276-.003.418-.015.929-.07 1.873-.197 2.361-.92.583-.866.5-2.25.433-3.365-.003-.09-.01-.18-.014-.261L15.3 8.438l-.056-1.086c-.444.015-.888.034-1.329.053.086 1.499.18 3.032.277 4.535z"></path><path fill="#fff" fill-opacity="0.1" fill-rule="evenodd" d="M44.667 2.913c-1.223-.074-2.264.705-2.421 1.813v.011l-.43 3.316a10.331 10.331 0 00-.167-.02 10.331 10.331 0 01-.168-.02l.37-3.324v-.011c.111-1.112-.713-2.115-1.922-2.335-.855-.157-1.642.13-2.116.708-.982-.902-2.508-1.108-3.157-1.152a5.148 5.148 0 00-3.254.854 1.819 1.819 0 00-.321-.478c-.403-.436-1.004-.69-1.698-.72-.698-.026-1.317.18-1.746.582a1.82 1.82 0 00-.586 1.284l-.332 10.31h-.034c-.414-.008-.828-.011-1.242-.015l.044-10.094v-.011c-.003-1.134-.91-2.026-2.156-2.119-1.187-.09-2.176.627-2.348 1.709-.01.07-.014.141-.014.212l.063 10.3h-.034l-.827.021-.415.012-.347-10.09v-.012c-.049-1.13-.99-1.988-2.235-2.032-.631-.027-1.194.175-1.605.53a2.769 2.769 0 00-1.325-.247c-.697.041-1.332.325-1.739.78-.328.373-.496.839-.466 1.316.067 1.097.134 2.212.198 3.294.1 1.716.209 3.495.32 5.237.008.13.02.269.03.407l.003.026c.03.38.082 1.031.001 1.283a1.292 1.292 0 01-.093.011c-.037.004-.067.004-.09.004-.119-.246-.164-.921-.186-1.298a13.059 13.059 0 00-.03-.407 812.07 812.07 0 00-.4-4.681c-.032-.382-.066-.768-.1-1.155-.077-.888-.155-1.787-.228-2.672a1.812 1.812 0 00-.653-1.235c-.466-.392-1.138-.582-1.836-.518-.697.063-1.32.369-1.712.839a1.88 1.88 0 00-.306.518c-.96-.652-2.228-.895-3.69-.7-.624.078-1.25.16-1.863.245L1.4 3.19c-.239.034-.857.122-1.268.667-.46.608-.355 1.347-.261 2.003.072.51.146 1.018.22 1.526L.31 8.91l.457 3.17c.262 1.814.527 3.646.785 5.458l.002.01c.046.31.163 1.103.872 1.534.317.194.638.243.914.243.183 0 .347-.023.474-.041.545-.075 1.097-.15 1.634-.213 1.482-.179 2.66-.79 3.415-1.772.037-.044.07-.093.1-.141.493.6 1.13 1.007 1.903 1.223l.544-.008c-.033.153-.05.313-.05.476v2.062a2.292 2.292 0 002.292 2.292h20.568a2.292 2.292 0 002.292-2.292V18.85c0-.44-.124-.852-.34-1.2a5.75 5.75 0 00.087-.055c.284.731.993 1.235 1.877 1.272 1.213.052 2.22-.757 2.34-1.876l.522-4.726.122.014.132.016-.612 4.714c-.15 1.12.638 2.142 1.829 2.38.156.03.313.049.466.049.925 0 1.713-.567 1.955-1.47a1.1 1.1 0 00.03-.153l1.803-12.664c.01-.067.015-.138.01-.205-.007-1.119-.884-1.966-2.067-2.033z" clip-rule="evenodd"></path><path fill="#FF1D25" d="M14.45 22.345c-.207 0-.37-.06-.49-.18s-.181-.284-.181-.491V17.94c.053-.01.137-.021.253-.036.115-.019.226-.029.332-.029.11 0 .207.01.288.03a.488.488 0 01.217.086.39.39 0 01.13.18.882.882 0 01.043.303v2.852h1.653a.937.937 0 01.094.217.864.864 0 01.044.274c0 .192-.041.33-.123.411a.455.455 0 01-.325.116H14.45zm3.701 0c-.206 0-.37-.06-.49-.18s-.18-.284-.18-.491V17.94c.052-.01.136-.021.252-.036.115-.019.226-.029.332-.029.11 0 .207.01.289.03a.488.488 0 01.216.086.39.39 0 01.13.18.88.88 0 01.043.303v2.852h1.654a.937.937 0 01.093.217.861.861 0 01.044.274c0 .192-.041.33-.123.411a.455.455 0 01-.325.116h-1.935zm4.032-4.267a2.023 2.023 0 01.873-.202c.241 0 .453.037.636.109.187.067.308.175.36.325.087.25.181.54.282.873a118.102 118.102 0 01.6 2.08c.096.34.18.644.252.909a.57.57 0 01-.26.159 1.173 1.173 0 01-.411.064c-.116 0-.215-.01-.296-.028a.559.559 0 01-.195-.087.485.485 0 01-.123-.152 1.574 1.574 0 01-.08-.216l-.13-.498h-1.306c-.038.144-.077.293-.115.447a29.69 29.69 0 01-.116.448c-.067.024-.14.043-.216.058-.073.019-.162.028-.268.028-.245 0-.428-.04-.548-.122a.419.419 0 01-.174-.354c0-.067.01-.135.03-.202l.064-.238c.034-.13.08-.291.137-.484l.203-.62c.072-.227.149-.458.23-.694a385.143 385.143 0 01.427-1.227l.144-.376zm.866.932c-.067.202-.144.428-.23.678a12.37 12.37 0 00-.225.751h.896c-.068-.26-.138-.512-.21-.758a31.7 31.7 0 00-.188-.671h-.043zm5.753 2.238a.737.737 0 01-.245.13 1.19 1.19 0 01-.34.043c-.173 0-.317-.022-.432-.065a.345.345 0 01-.217-.224 83.545 83.545 0 00-.332-1.025 9.546 9.546 0 01-.202-.693h-.036c-.015.284-.027.544-.036.78l-.015.678c0 .222-.005.445-.014.672-.005.226-.015.476-.03.75a1.157 1.157 0 01-.245.058c-.1.02-.202.029-.303.029-.212 0-.378-.034-.498-.101-.115-.067-.173-.19-.173-.368l.21-3.682c.038-.063.122-.13.252-.202.13-.072.313-.108.549-.108.255 0 .454.04.599.122.144.077.25.205.317.383.044.116.09.248.137.397.053.15.104.303.152.462a92.03 92.03 0 01.282.895h.036c.115-.404.23-.794.346-1.17.116-.38.222-.697.318-.952a1.07 1.07 0 01.274-.094c.116-.029.243-.043.383-.043.236 0 .428.036.577.108.15.067.236.166.26.296.02.096.039.245.058.447.024.198.048.422.072.672a80.652 80.652 0 01.137 1.602 25.694 25.694 0 01.087 1.199.858.858 0 01-.26.1c-.087.025-.2.037-.34.037-.182 0-.336-.031-.461-.094-.125-.062-.193-.185-.202-.368a44.537 44.537 0 01-.058-1.415c-.005-.419-.015-.77-.03-1.054h-.035c-.048.188-.118.424-.21.708-.091.284-.202.647-.332 1.09zm3.695-3.17a2.023 2.023 0 01.873-.202c.24 0 .453.037.635.109.188.067.308.175.361.325.087.25.181.54.282.873a118.102 118.102 0 01.6 2.08c.096.34.18.644.252.909a.571.571 0 01-.26.159 1.173 1.173 0 01-.412.064c-.115 0-.214-.01-.296-.028a.559.559 0 01-.194-.087.485.485 0 01-.123-.152 1.574 1.574 0 01-.08-.216l-.13-.498H32.7c-.039.144-.077.293-.116.447a29.69 29.69 0 01-.115.448c-.068.024-.14.043-.217.058-.072.019-.16.028-.267.028-.245 0-.428-.04-.548-.122a.419.419 0 01-.174-.354c0-.067.01-.135.03-.202l.064-.238c.034-.13.08-.291.137-.484l.203-.62c.072-.227.149-.458.23-.694a385.143 385.143 0 01.426-1.227l.145-.376zm.866.932c-.067.202-.144.428-.231.678a12.3 12.3 0 00-.224.751h.895c-.067-.26-.137-.512-.209-.758-.067-.25-.13-.474-.188-.671h-.043z"></path><path fill="#000" d="M13.96 22.164l.121-.121-.122.121zm-.181-4.223l-.03-.169-.142.026v.143h.172zm.253-.036l.021.17h.007l-.028-.17zm.62 0l-.039.168.011.002.028-.17zm.217.087l-.103.137.103-.137zm.13.18l.16-.06-.16.06zm.043 3.155h-.172v.172h.172v-.172zm1.653 0l.145-.092-.05-.08h-.095v.172zm.094.217l-.164.051.001.003.163-.054zm-.08.685l.119.126.003-.004-.121-.122zm-2.259-.056c-.171 0-.288-.049-.369-.13l-.243.243c.16.16.37.23.612.23v-.343zm-.369-.13c-.081-.081-.13-.198-.13-.37h-.344c0 .243.072.454.23.613l.244-.243zm-.13-.37v-3.732h-.344v3.733h.344zm-.141-3.563c.048-.008.128-.02.243-.034l-.043-.341a5.363 5.363 0 00-.262.037l.062.338zm.25-.035c.107-.018.208-.027.304-.027v-.343c-.117 0-.237.01-.36.03l.056.34zm.304-.027c.101 0 .183.01.25.025l.078-.335a1.446 1.446 0 00-.328-.034v.344zm.26.027a.32.32 0 01.142.054l.206-.275a.659.659 0 00-.291-.118l-.057.339zm.142.054a.219.219 0 01.072.104l.322-.121a.561.561 0 00-.188-.258l-.206.275zm.072.104c.019.05.032.128.032.242h.344c0-.136-.015-.26-.054-.363l-.322.12zm.032.242v2.852h.344v-2.852h-.344zm.172 3.024h1.653v-.344h-1.653v.344zm1.508-.08a.771.771 0 01.075.176l.328-.103a1.103 1.103 0 00-.113-.257l-.29.184zm.076.179a.69.69 0 01.035.22h.343c0-.114-.017-.224-.052-.329l-.326.109zm.035.22c0 .175-.039.256-.073.29l.243.243c.13-.13.174-.324.174-.533h-.344zm-.069.286c-.044.041-.107.069-.207.069v.344c.17 0 .323-.05.443-.162l-.236-.25zm-.207.069H14.45v.344h1.935v-.344zm1.276-.009l.121-.121-.121.121zm-.18-4.223l-.032-.169-.14.026v.143h.171zm.252-.036l.021.17h.007l-.028-.17zm.62 0l-.039.168.011.002.029-.17zm.217.087l-.103.137.103-.137zm.13.18l.161-.06-.16.06zm.043 3.155h-.171v.172h.171v-.172zm1.654 0l.145-.092-.051-.08h-.095v.172zm.093.217l-.163.051v.003l.163-.054zm-.079.685l.118.126.003-.004-.121-.122zm-2.26-.056c-.171 0-.288-.049-.369-.13l-.243.243c.16.16.37.23.612.23v-.343zm-.369-.13c-.081-.081-.13-.198-.13-.37h-.344c0 .243.072.454.231.613l.243-.243zm-.13-.37v-3.732h-.344v3.733h.344zm-.141-3.563a5.07 5.07 0 01.243-.034l-.043-.341a5.363 5.363 0 00-.262.037l.062.338zm.25-.035c.107-.018.208-.027.304-.027v-.343c-.117 0-.237.01-.36.03l.056.34zm.304-.027c.101 0 .184.01.25.025l.078-.335a1.445 1.445 0 00-.328-.034v.344zm.26.027c.066.01.11.03.142.054l.206-.275a.66.66 0 00-.291-.118l-.057.339zm.142.054a.22.22 0 01.072.104l.322-.121a.56.56 0 00-.188-.258l-.206.275zm.072.104a.72.72 0 01.032.242h.344c0-.136-.015-.26-.054-.363l-.322.12zm.032.242v2.852h.344v-2.852h-.343zm.172 3.024h1.654v-.344h-1.654v.344zm1.509-.08a.771.771 0 01.075.176l.327-.103a1.107 1.107 0 00-.112-.257l-.29.184zm.075.179a.688.688 0 01.035.22h.344c0-.114-.017-.224-.052-.329l-.327.109zm.035.22c0 .175-.039.256-.073.29l.243.243c.13-.13.174-.324.174-.533h-.344zm-.069.286c-.044.041-.107.069-.207.069v.344c.17 0 .323-.05.443-.162l-.236-.25zm-.207.069h-1.935v.344h1.935v-.344zm2.097-4.095l-.087-.148-.052.03-.021.056.16.063zm.368-.137l-.043-.166.043.166zm1.14.044l-.062.16.005.001.058-.161zm.362.325l.162-.057v-.001l-.162.058zm.281.873l.165-.05-.165.05zm.303 1.032l-.165.047.165-.047zm.296 1.047l-.165.046.165-.046zm.253.91l.13.111.06-.069-.024-.088-.166.046zm-.26.159l-.054-.164-.006.002.06.162zm-.707.036l-.042.166h.002l.04-.166zm-.195-.087l-.108.134.007.005.1-.14zm-.123-.152l-.156.073.005.009.151-.082zm-.08-.216l-.166.043.002.005.165-.048zm-.13-.498l.167-.044-.034-.128h-.132v.172zm-1.306 0v-.172h-.132l-.034.127.166.045zm-.115.447l-.167-.041.167.041zm-.116.448l.058.162.085-.03.023-.088-.166-.044zm-.216.058l-.032-.17-.013.004.044.166zm-.816-.094l-.104.137.007.005.097-.142zm-.145-.556l-.165-.047.165.047zm.065-.238l.167.043-.167-.043zm.137-.484l-.163-.053-.001.004.165.049zm.203-.62l.163.052-.163-.053zm.23-.694l-.162-.056.163.056zm.232-.664l.162.057v-.002l-.162-.055zm.195-.563l-.161-.062-.002.005.163.057zm1.01.556v-.172h-.124l-.039.117.163.055zm-.23.678l-.163-.056v.002l.162.054zm-.225.751l-.166-.044-.057.216h.223v-.172zm.896 0v.172h.222l-.056-.215-.166.043zm-.21-.758l-.166.045.001.004.165-.049zm-.188-.671l.166-.049-.037-.123h-.128v.172zm-.822-.783c.062-.037.167-.078.325-.12l-.088-.332c-.169.045-.31.095-.411.155l.174.297zm.324-.12c.155-.039.309-.059.462-.059v-.343c-.183 0-.366.023-.548.07l.086.333zm.462-.059c.224 0 .414.034.573.097l.126-.32a1.892 1.892 0 00-.698-.12v.343zm.578.098c.152.055.225.133.257.221l.324-.115c-.075-.21-.243-.35-.465-.43l-.116.324zm.256.22c.086.247.18.536.28.867l.329-.1a24.8 24.8 0 00-.284-.88l-.325.113zm.28.867c.1.331.201.674.302 1.03l.33-.095a57.623 57.623 0 00-.303-1.035l-.33.1zm.302 1.03c.101.35.2.7.296 1.045l.331-.092c-.096-.347-.195-.696-.296-1.048l-.33.095zm.296 1.046c.096.341.18.644.252.908l.332-.09a115.75 115.75 0 00-.253-.912l-.331.094zm.287.75a.404.404 0 01-.183.108l.108.326a.74.74 0 00.337-.21l-.262-.223zm-.19.11a1 1 0 01-.35.055v.343c.174 0 .332-.023.471-.076l-.12-.322zm-.35.055c-.107 0-.192-.01-.257-.025l-.079.335c.099.023.212.033.336.033v-.343zm-.255-.024a.387.387 0 01-.135-.06l-.202.279c.074.054.16.09.254.114l.083-.333zm-.129-.054a.313.313 0 01-.079-.1l-.302.164c.043.08.098.15.166.204l.215-.268zm-.074-.09a1.425 1.425 0 01-.07-.193l-.33.097c.026.088.055.169.088.24l.312-.144zm-.069-.188l-.13-.498-.333.087.13.498.333-.087zm-.296-.626h-1.307v.343h1.307v-.343zm-1.473.127c-.039.146-.078.296-.116.45l.333.084c.039-.153.077-.302.115-.445l-.332-.089zm-.116.45l-.115.446.332.088c.039-.145.078-.295.116-.45l-.333-.083zm-.007.328c-.058.02-.121.038-.19.05l.063.338c.085-.015.166-.037.243-.064l-.116-.324zm-.203.054a.89.89 0 01-.223.023v.343c.116 0 .22-.01.312-.034l-.089-.332zm-.223.023c-.232 0-.373-.04-.452-.093l-.193.284c.163.11.387.152.645.152v-.343zm-.445-.089a.247.247 0 01-.105-.216h-.343c0 .201.081.37.242.491l.206-.275zm-.105-.216c0-.05.008-.102.023-.155l-.33-.094a.907.907 0 00-.036.249h.343zm.023-.155c.02-.069.041-.15.066-.242l-.333-.087-.064.235.33.094zm.066-.242c.033-.127.078-.286.135-.478l-.33-.098c-.057.193-.104.357-.138.49l.333.086zm.134-.474l.202-.62-.327-.107-.202.62.327.107zm.202-.622c.072-.224.149-.454.23-.689l-.325-.112c-.082.237-.16.47-.232.697l.327.104zm.23-.689l.231-.663-.325-.114-.23.665.324.112zm.231-.665c.072-.21.137-.398.195-.56l-.325-.115c-.058.164-.123.352-.195.565l.325.11zm.193-.557l.144-.374-.32-.125-.145.377.321.122zm.687.44c-.067.202-.144.427-.23.677l.325.112c.086-.25.164-.477.231-.68l-.326-.109zm-.23.679c-.084.249-.16.503-.228.761l.333.088c.066-.252.14-.498.22-.74l-.326-.109zm-.062.977h.896v-.344h-.896v.344zm1.062-.215a24.233 24.233 0 00-.21-.763l-.33.097c.071.243.14.494.207.752l.333-.086zm-.21-.76c-.067-.25-.13-.476-.189-.674l-.33.096c.058.196.12.418.187.668l.332-.09zm-.354-.798h-.043v.344h.044v-.344zm5.71 2.41l.111.13.04-.032.014-.05-.165-.048zm-.245.13l.05.164.004-.001-.054-.163zm-.772-.022l-.063.16h.002l.06-.16zm-.217-.224l-.164.052.164-.052zm-.332-1.025l-.163.053v.001l.163-.054zm-.202-.693l.167-.04-.032-.132h-.135v.172zm-.036 0v-.172h-.164l-.008.163.172.009zm-.036.78l-.172-.007v.003l.172.004zm-.015.678l-.172-.003v.003h.172zm-.014.672l-.172-.008v.004l.172.004zm-.03.75l.063.16.104-.04.006-.11-.172-.01zm-.245.058l-.024-.17-.008.001.032.17zm-.8-.072l-.088.148.003.002.084-.15zm-.174-.368l-.172-.01v.01h.172zm.21-3.682l-.147-.09-.023.037-.002.043.171.01zm1.4-.188l-.085.15.004.002.08-.152zm.317.383l.161-.06-.16.06zm.137.397l-.163.053.002.005.161-.058zm.152.462l-.165.05.002.004.163-.054zm.152.477l-.165.05.165-.05zm.13.418l-.165.05.038.122h.127v-.172zm.036 0v.172h.13l.035-.125-.165-.047zm.346-1.17l.165.051-.165-.05zm.318-.952l-.081-.152-.057.03-.023.061.16.06zm.274-.094l.037.168.005-.001-.042-.167zm.96.065l-.075.155.005.002.07-.157zm.26.296l-.169.031v.003l.17-.034zm.058.447l-.171.017v.004l.17-.02zm.21 2.274l-.172.013v.004l.171-.017zm.057.708l-.172.011.172-.011zm.029.49l.087.149.089-.052-.004-.103-.172.007zm-.26.102l-.035-.169-.011.003.046.166zm-1.003-.426l.171-.01-.171.01zm-.058-1.415l-.172.002v.002l.172-.004zm-.03-1.054l.173-.009-.009-.163h-.163v.172zm-.035 0v-.172h-.134l-.033.13.167.042zm-.21.708l.164.052-.163-.052zm-.443.958a.567.567 0 01-.188.099l.108.326a.906.906 0 00.302-.162l-.222-.263zm-.183.097a1.017 1.017 0 01-.29.036v.344c.142 0 .272-.016.388-.05l-.098-.33zm-.29.036c-.16 0-.283-.02-.373-.054l-.12.322c.14.053.306.076.493.076v-.344zm-.37-.053c-.067-.026-.1-.063-.116-.116l-.328.104c.05.16.163.271.318.332l.125-.32zm-.116-.116a83.854 83.854 0 00-.333-1.027l-.326.108c.086.26.197.6.331 1.023l.328-.104zm-.333-1.026a9.306 9.306 0 01-.198-.68l-.334.08c.05.204.118.439.206.706l.326-.106zm-.365-.812h-.036v.344h.036v-.344zm-.208.163c-.014.285-.027.545-.036.782l.343.014.036-.778-.343-.018zm-.036.785l-.015.678.344.008.014-.679-.343-.007zm-.015.682c0 .22-.005.44-.014.664l.343.015c.01-.229.015-.455.015-.679h-.344zm-.014.668c-.005.224-.014.472-.029.745l.344.018c.014-.275.024-.527.029-.756l-.344-.007zm.081.594a.993.993 0 01-.208.048l.049.34a1.33 1.33 0 00.282-.067l-.123-.321zm-.216.05a1.45 1.45 0 01-.27.025v.344c.111 0 .223-.01.334-.032l-.064-.338zm-.27.025c-.198 0-.33-.032-.415-.079l-.168.3c.156.087.355.123.582.123v-.344zm-.412-.078c-.046-.026-.088-.08-.088-.22h-.344c0 .217.073.41.258.517l.174-.297zm-.089-.21l.21-3.681-.343-.02-.21 3.682.343.02zm.185-3.6c.014-.024.064-.073.19-.143l-.168-.3c-.134.074-.252.16-.315.262l.293.18zm.19-.143c.093-.052.242-.086.465-.086v-.344c-.25 0-.466.037-.633.13l.167.3zm.465-.086c.24 0 .406.039.514.1l.17-.3c-.181-.101-.414-.144-.684-.144v.344zm.518.102a.517.517 0 01.238.292l.321-.122a.859.859 0 00-.397-.473l-.162.303zm.237.291c.043.113.087.242.135.39l.327-.106a9.173 9.173 0 00-.14-.404l-.322.12zm.137.395c.052.146.101.297.148.454l.33-.1a10.47 10.47 0 00-.155-.47l-.323.116zm.15.458c.052.158.103.315.15.472l.33-.1c-.05-.16-.1-.32-.154-.48l-.326.108zm.15.474c.049.154.092.293.13.418l.329-.101a96.993 96.993 0 00-.13-.42l-.328.103zm.295.54h.036v-.345h-.036v.344zm.2-.126c.116-.403.231-.791.346-1.166l-.328-.1c-.116.376-.232.767-.348 1.172l.33.094zm.347-1.166c.114-.378.22-.692.314-.942l-.322-.122c-.098.26-.205.581-.321.964l.329.1zm.234-.851a.904.904 0 01.23-.078l-.073-.336c-.121.026-.229.062-.32.11l.163.303zm.235-.08c.1-.024.213-.037.34-.037v-.344c-.15 0-.292.015-.424.048l.084.334zm.34-.037c.22 0 .385.034.503.09l.15-.309c-.18-.087-.4-.125-.652-.125v.344zm.508.093c.111.05.15.109.161.17l.338-.062c-.037-.2-.171-.337-.358-.422l-.142.314zm.162.173c.017.087.036.229.055.43l.342-.033c-.02-.203-.04-.36-.06-.465l-.337.068zm.055.434c.024.196.048.418.072.667l.342-.033a27 27 0 00-.072-.675l-.342.041zm.072.667c.024.25.048.514.072.793l.343-.03-.073-.796-.342.033zm.072.793c.024.278.046.547.065.806l.343-.025c-.02-.26-.041-.531-.066-.81l-.342.029zm.065.81c.024.253.043.488.057.702l.343-.023a26.23 26.23 0 00-.058-.712l-.342.033zm.057.703c.015.21.024.373.03.486l.343-.014a19.864 19.864 0 00-.03-.496l-.343.024zm.114.33a.686.686 0 01-.208.082l.07.336c.11-.023.214-.064.312-.121l-.174-.296zm-.219.084a1.14 1.14 0 01-.293.03v.344c.147 0 .277-.013.385-.043l-.092-.33zm-.293.03a.856.856 0 01-.385-.076l-.154.308c.155.078.337.112.539.112v-.344zm-.385-.076c-.053-.026-.1-.08-.108-.223l-.343.018c.012.223.1.414.297.513l.154-.308zm-.108-.223a44.59 44.59 0 01-.057-1.41l-.344.008c.01.42.029.895.058 1.42l.343-.018zm-.057-1.408c-.005-.42-.015-.774-.03-1.06l-.343.017c.015.28.024.63.029 1.047l.344-.004zm-.201-1.224h-.036v.344h.036v-.344zm-.203.13c-.047.182-.115.415-.206.697l.327.105c.092-.286.163-.525.212-.717l-.333-.086zm-.206.697c-.092.286-.203.65-.334 1.094l.33.097c.13-.442.24-.804.331-1.086l-.327-.105zm3.526-2.027l-.087-.148-.052.03-.021.056.16.063zm.368-.137l-.043-.166h-.001l.044.166zm1.14.044l-.063.16.005.001.058-.161zm.361.325l.163-.057v-.001l-.163.058zm.282.873l.164-.05-.164.05zm.303 1.032l-.165.047.165-.047zm.296 1.047l-.165.046.165-.046zm.253.91l.13.111.06-.069-.024-.088-.166.046zm-.26.159l-.054-.164-.006.002.06.162zm-.708.036l-.041.166h.002l.04-.166zm-.194-.087l-.108.134.007.005.1-.14zm-.123-.152l-.157.073.006.009.15-.082zm-.08-.216l-.166.043.002.005.165-.048zm-.13-.498l.167-.044-.034-.128h-.133v.172zm-1.306 0v-.172h-.132l-.034.127.166.045zm-.116.447l-.166-.041.166.041zm-.115.448l.058.162.085-.03.023-.088-.166-.044zm-.217.058l-.031-.17-.013.004.044.166zm-.815-.094l-.104.137.007.005.097-.142zm-.145-.556l-.165-.047.165.047zm.065-.238l.166.043-.166-.043zm.137-.484l-.163-.053-.001.004.164.049zm.203-.62l.163.052-.164-.053zm.23-.694l-.162-.056.163.056zm.232-.664l.162.057v-.002l-.163-.055zm.194-.563l-.16-.062-.002.005.162.057zm1.011.556v-.172h-.124l-.039.117.163.055zm-.231.678l-.162-.056-.001.002.163.054zm-.224.751l-.166-.044-.057.216h.223v-.172zm.895 0v.172h.223l-.056-.215-.167.043zm-.209-.758l-.166.045.001.004.165-.049zm-.188-.671l.165-.049-.036-.123h-.129v.172zm-.822-.783c.062-.037.167-.078.325-.12l-.088-.332c-.169.045-.31.095-.411.155l.174.297zm.324-.12c.155-.039.309-.059.462-.059v-.343c-.183 0-.366.023-.548.07l.086.333zm.462-.059c.224 0 .414.034.572.097l.127-.32a1.892 1.892 0 00-.699-.12v.343zm.578.098c.152.055.225.133.257.221l.324-.115c-.075-.21-.243-.35-.465-.43l-.117.324zm.256.22c.086.247.179.536.28.867l.328-.1a24.99 24.99 0 00-.283-.88l-.325.113zm.28.867c.1.331.201.674.302 1.03l.33-.095a57.638 57.638 0 00-.303-1.035l-.33.1zm.302 1.03c.101.35.2.7.296 1.045l.33-.092c-.096-.347-.194-.696-.296-1.048l-.33.095zm.296 1.046c.096.341.18.644.252.908l.332-.09a115.75 115.75 0 00-.253-.912l-.331.094zm.287.75a.405.405 0 01-.183.108l.108.326a.74.74 0 00.336-.21l-.26-.223zm-.19.11a1 1 0 01-.35.055v.343c.173 0 .332-.023.471-.076l-.12-.322zm-.35.055c-.107 0-.192-.01-.257-.025l-.079.335c.099.023.211.033.335.033v-.343zm-.255-.024a.388.388 0 01-.135-.06l-.203.279a.73.73 0 00.255.114l.083-.333zm-.129-.054a.315.315 0 01-.079-.1l-.302.164c.042.08.097.15.166.204l.215-.268zm-.074-.09a1.425 1.425 0 01-.07-.193l-.33.097c.026.088.055.169.088.24l.312-.144zm-.07-.188l-.13-.498-.332.087.13.498.333-.087zm-.296-.626H32.7v.343h1.306v-.343zm-1.472.127c-.039.146-.078.296-.116.45l.333.084c.038-.153.077-.302.115-.445l-.332-.089zm-.116.45l-.115.446.332.088c.039-.145.077-.295.116-.45l-.333-.083zm-.007.328c-.058.02-.121.038-.19.05l.063.338c.085-.015.166-.037.243-.064l-.116-.324zm-.203.054a.89.89 0 01-.223.023v.343c.115 0 .22-.01.312-.034l-.089-.332zm-.223.023c-.232 0-.374-.04-.452-.093l-.193.284c.162.11.387.152.645.152v-.343zm-.445-.089a.248.248 0 01-.105-.216h-.344c0 .201.082.37.242.491l.207-.275zm-.105-.216c0-.05.007-.102.022-.155l-.33-.094a.907.907 0 00-.036.249h.344zm.022-.155c.02-.069.042-.15.066-.242l-.332-.087-.064.235.33.094zm.067-.242c.032-.127.078-.286.135-.478l-.33-.098c-.057.193-.104.357-.138.49l.333.086zm.134-.474l.202-.62-.327-.107-.202.62.327.107zm.202-.622c.072-.224.148-.454.23-.689l-.325-.112c-.082.237-.16.47-.232.697l.327.104zm.23-.689l.23-.663-.324-.114c-.072.207-.15.429-.23.665l.324.112zm.231-.665l.194-.56-.324-.115c-.058.164-.123.352-.195.565l.325.11zm.193-.557l.144-.374-.32-.125c-.034.087-.083.213-.145.377l.32.122zm.687.44c-.067.202-.144.427-.23.677l.325.112c.086-.25.163-.477.231-.68l-.326-.109zm-.231.679c-.083.249-.159.503-.227.761l.332.088c.067-.252.14-.498.221-.74l-.326-.109zm-.06.977h.894v-.344h-.895v.344zm1.06-.215a24.51 24.51 0 00-.21-.763l-.33.097c.072.243.141.494.208.752l.333-.086zm-.209-.76c-.068-.25-.13-.476-.189-.674l-.33.096c.058.196.12.418.187.668l.332-.09zm-.354-.798h-.043v.344h.043v-.344z"></path></g><defs><clipPath id="clip0"><path fill="#fff" d="M0 0H47.001V24.883H0z"></path></clipPath></defs></svg>