<svg xmlns="http://www.w3.org/2000/svg" width="24" height="24" fill="none" viewBox="0 0 24 24"><path fill="#000" d="M21.634 4.031c-.815.385-2.202 1.107-2.899 1.245-.027.007-.049.016-.075.023A4.5 4.5 0 0011 8.5c0 .131-.011.372 0 .5-3.218 0-5.568-1.679-7.327-3.837-.235-.29-.485-.139-.537.067-.117.466-.157 1.245-.157 1.801 0 1.401 1.095 2.777 2.8 3.63-.314.081-.66.139-1.02.139a2.97 2.97 0 01-1.339-.335c-.158-.083-.499-.06-.398.344.405 1.619 2.253 2.756 3.904 3.087-.375.221-1.175.176-1.543.176-.136 0-.609-.032-.915-.07-.279-.034-.708.038-.349.582.771 1.167 2.515 1.9 4.016 1.928-1.382 1.084-3.642 1.48-5.807 1.48-.438-.01-.416.489-.063.674C3.862 19.504 6.478 20 8.347 20 15.777 20 20 14.337 20 8.999l-.005-.447c0-.018.005-.035.005-.053 0-.027-.008-.053-.008-.08a18.384 18.384 0 00-.009-.329c.589-.425 1.491-1.163 1.947-1.728.155-.192.03-.425-.181-.352-.543.189-1.482.555-2.07.625 1.177-.779 1.759-1.457 2.259-2.21.171-.257-.043-.518-.304-.394z"></path></svg>